<?xml version="1.0" encoding="UTF-8"?>
<svg version="1.1" xmlns="http://www.w3.org/2000/svg" width="1024" height="1024">
<path d="M0 0 C337.92 0 675.84 0 1024 0 C1024 337.92 1024 675.84 1024 1024 C686.08 1024 348.16 1024 0 1024 C0 686.08 0 348.16 0 0 Z " fill="#FEFEFE" transform="translate(0,0)"/>
<path d="M0 0 C55.00248139 0 55.00248139 0 66 8 C70.99537509 13.12346163 73.37385363 18.43194431 73.41015625 25.53515625 C73.39855469 26.30730469 73.38695312 27.07945312 73.375 27.875 C73.38660156 28.63941406 73.39820313 29.40382813 73.41015625 30.19140625 C73.36790333 38.4870619 70.98187885 45.01812115 65 51 C62.72137168 52.52540191 60.45113715 53.75040067 58 55 C58.56847656 55.1959375 59.13695312 55.391875 59.72265625 55.59375 C66.02986779 58.03660989 70.31708266 61.26648325 74 67 C77.89314431 76.21029108 77.21430163 87.82276378 73.9375 97.125 C69.67714733 106.61611901 64.35365432 110.33914813 54.76953125 114.0546875 C37.48086347 119.95575605 18.26802244 116 0 116 C0 77.72 0 39.44 0 0 Z " fill="#056BEC" transform="translate(179,473)"/>
<path d="M0 0 C1.11246094 -0.00257813 2.22492188 -0.00515625 3.37109375 -0.0078125 C6.5625 0.125 6.5625 0.125 8.76879883 0.61572266 C12.32855138 1.26464722 15.84640118 1.33774796 19.453125 1.40625 C20.57095367 1.43386414 20.57095367 1.43386414 21.71136475 1.46203613 C24.88588662 1.54044816 28.06060163 1.60878615 31.23535156 1.67724609 C33.55805463 1.72880916 35.88056688 1.78607883 38.203125 1.84375 C38.92598694 1.85732544 39.64884888 1.87090088 40.39361572 1.8848877 C45.44958774 2.01208774 45.44958774 2.01208774 46.5625 3.125 C46.66159302 5.45660055 46.69220504 7.79129942 46.6875 10.125 C46.69136719 12.043125 46.69136719 12.043125 46.6953125 14 C46.5625 17.125 46.5625 17.125 45.5625 18.125 C43.54285801 18.19744053 41.52082876 18.20877188 39.5 18.1875 C38.39527344 18.17847656 37.29054688 18.16945313 36.15234375 18.16015625 C35.29769531 18.14855469 34.44304687 18.13695312 33.5625 18.125 C34.0575 18.970625 34.5525 19.81625 35.0625 20.6875 C38.04792201 27.8121303 37.70849798 36.21961866 35.56640625 43.51953125 C31.81246662 51.9738712 26.50075909 56.19278681 18.36328125 60.2109375 C9.96407289 63.40644784 0.39247648 62.36977348 -8.4375 62.125 C-8.4375 64.765 -8.4375 67.405 -8.4375 70.125 C-5.17502522 71.08961665 -2.17649838 71.2758202 1.21875 71.3359375 C2.32476562 71.36429688 3.43078125 71.39265625 4.5703125 71.421875 C6.86703945 71.47325592 9.16393328 71.51772421 11.4609375 71.5546875 C21.2140378 71.82498127 31.85142528 72.54237524 39.5625 79.125 C45.63586807 85.58002781 45.99719694 90.54246701 45.8359375 99.0625 C45.48457101 106.6464499 42.35611017 112.3696301 36.8046875 117.4921875 C25.80622512 125.50152073 13.44330292 127.51491584 0.1875 127.4375 C-0.82328613 127.43186035 -1.83407227 127.4262207 -2.87548828 127.42041016 C-14.09760051 127.2378045 -23.74670345 125.74785969 -32.4375 118.125 C-37.25353346 112.58656152 -37.79644645 107.17220039 -37.7109375 100.06640625 C-37.11471616 93.65276815 -32.70975494 90.2122593 -28.12109375 86.2265625 C-26.4375 85.125 -26.4375 85.125 -23.4375 85.125 C-23.7984375 84.50753906 -24.159375 83.89007812 -24.53125 83.25390625 C-27.67193239 77.52216089 -29.81155928 72.70535728 -28.4375 66.125 C-26.32965646 62.05987317 -24.11492989 59.75173564 -20.4375 57.125 C-20.4375 56.465 -20.4375 55.805 -20.4375 55.125 C-21.345 54.42375 -22.2525 53.7225 -23.1875 53 C-27.73858104 49.38495691 -29.63741895 44.52524316 -31.4375 39.125 C-32.608858 20.95934967 -32.608858 20.95934967 -27.4375 13.125 C-26.7775 12.073125 -26.1175 11.02125 -25.4375 9.9375 C-19.17665969 2.9112278 -9.05965241 -0.02094717 0 0 Z " fill="#040505" transform="translate(444.4375,498.875)"/>
<path d="M0 0 C1.084021 0.00523682 2.16804199 0.01047363 3.28491211 0.01586914 C5.03964844 0.02070313 5.03964844 0.02070313 6.82983398 0.02563477 C8.67738281 0.03820312 8.67738281 0.03820312 10.56225586 0.05102539 C12.41560547 0.05779297 12.41560547 0.05779297 14.30639648 0.06469727 C17.37089703 0.07652931 20.43530307 0.09301366 23.49975586 0.11352539 C28.75641331 9.98828754 33.91780827 19.89706143 38.87475586 29.92602539 C42.64579728 37.54339462 46.58604081 45.04383003 50.68725586 52.48852539 C54.30976881 59.06446556 57.87716861 65.6553192 61.24975586 72.36352539 C61.58515381 73.02529785 61.92055176 73.68707031 62.26611328 74.36889648 C64.49975586 78.86508831 64.49975586 78.86508831 64.49975586 81.11352539 C65.15975586 81.11352539 65.81975586 81.11352539 66.49975586 81.11352539 C66.49975586 54.38352539 66.49975586 27.65352539 66.49975586 0.11352539 C73.75975586 0.11352539 81.01975586 0.11352539 88.49975586 0.11352539 C89.49975586 1.11352539 89.49975586 1.11352539 89.62280369 3.03257084 C89.6218819 3.87969859 89.6209601 4.72682634 89.62001038 5.59962463 C89.62207237 7.0531282 89.62207237 7.0531282 89.62417603 8.53599548 C89.61878311 10.14360497 89.61878311 10.14360497 89.61328125 11.78369141 C89.61342728 12.90549805 89.6135733 14.02730469 89.61372375 15.18310547 C89.61302406 18.9112335 89.60522901 22.63931228 89.59741211 26.36743164 C89.59554813 28.94433057 89.59412413 31.52122986 89.59312439 34.09812927 C89.58968928 40.20027654 89.58179846 46.30240333 89.5717749 52.40454286 C89.56061275 59.35001789 89.55510306 66.29549374 89.55007946 73.2409755 C89.53961582 87.53183663 89.52127074 101.82267673 89.49975586 116.11352539 C79.92975586 116.11352539 70.35975586 116.11352539 60.49975586 116.11352539 C59.25323242 113.68106445 58.00670898 111.24860352 56.72241211 108.74243164 C55.0025388 105.38687124 53.28242788 102.03143268 51.56225586 98.67602539 C51.11512238 97.80382355 50.66798889 96.9316217 50.20730591 96.0329895 C43.08737989 82.14591154 35.95089582 68.26746252 28.79492188 54.39892578 C28.45852692 53.74667023 28.12213196 53.09441467 27.77554321 52.4223938 C26.87849931 50.68313116 25.98101631 48.94409501 25.08349609 47.20507812 C23.99411328 45.07853974 22.94074246 42.93329012 21.91796875 40.77392578 C20.77386302 38.00936803 20.77386302 38.00936803 18.49975586 37.11352539 C18.74374367 38.37013474 18.74374367 38.37013474 18.99266052 39.65213013 C19.53019829 43.3213232 19.61969645 46.78786491 19.61328125 50.49584961 C19.61342728 51.20873642 19.6135733 51.92162323 19.61372375 52.65611267 C19.61303158 54.99351124 19.60527198 57.33082838 19.59741211 59.66821289 C19.59554546 61.29631507 19.59412272 62.92441781 19.59312439 64.55252075 C19.58931868 68.82354298 19.57950512 73.09453084 19.56842041 77.36553955 C19.55816434 81.72944677 19.5536178 86.09335958 19.54858398 90.45727539 C19.53788101 99.0093762 19.52030007 107.56144255 19.49975586 116.11352539 C11.90975586 116.11352539 4.31975586 116.11352539 -3.50024414 116.11352539 C-3.52279183 101.13665946 -3.5412237 86.15980218 -3.55205631 71.18292332 C-3.5572191 64.22936459 -3.56426148 57.27581712 -3.57568359 50.32226562 C-3.58669108 43.6179533 -3.59252035 36.91365514 -3.59512138 30.20933342 C-3.59697616 27.64514926 -3.60059778 25.08096577 -3.6059742 22.51678658 C-3.61318073 18.93907381 -3.61423525 15.3614102 -3.61376953 11.78369141 C-3.61736481 10.71195175 -3.62096008 9.6402121 -3.62466431 8.53599548 C-3.62328964 7.5669931 -3.62191498 6.59799072 -3.62049866 5.59962463 C-3.62142045 4.75249688 -3.62234224 3.90536913 -3.62329197 3.03257084 C-3.43363525 0.07469769 -2.97384975 0.1350298 0 0 Z " fill="#040404" transform="translate(513.500244140625,472.886474609375)"/>
<path d="M0 0 C7.59 0 15.18 0 23 0 C28.28538231 20.93011395 33.45148961 41.89604187 38 63 C38.11214844 62.04609375 38.22429688 61.0921875 38.33984375 60.109375 C39.90582254 48.27879495 42.64232682 36.80452756 45.5625 25.25 C45.76390594 24.45251343 45.96531189 23.65502686 46.17282104 22.83337402 C51.60435436 1.39564564 51.60435436 1.39564564 53 0 C54.85369611 -0.08737645 56.71067541 -0.10698153 58.56640625 -0.09765625 C59.69111328 -0.09443359 60.81582031 -0.09121094 61.97460938 -0.08789062 C63.15861328 -0.07951172 64.34261719 -0.07113281 65.5625 -0.0625 C66.75037109 -0.05798828 67.93824219 -0.05347656 69.16210938 -0.04882812 C72.10812226 -0.03699675 75.05403681 -0.02051287 78 0 C80.32395939 5.059933 81.88224446 9.94355117 83.12109375 15.36328125 C83.30712662 16.1541362 83.49315948 16.94499115 83.68482971 17.7598114 C84.275055 20.27601546 84.85631527 22.79419434 85.4375 25.3125 C85.82300262 26.95911678 86.20906631 28.6056023 86.59570312 30.25195312 C89.146778 41.1495719 91.59324523 52.06969893 94 63 C94.66 63 95.32 63 96 63 C95.93296875 61.85402344 95.8659375 60.70804688 95.796875 59.52734375 C95.8027024 52.06681668 97.68247775 44.81879348 99.25 37.5625 C99.57376901 36.03593616 99.89692751 34.50924271 100.21948242 32.98242188 C100.8515795 29.99895241 101.4893077 27.01677914 102.13232422 24.03564453 C102.86445287 20.64000187 103.57842587 17.24087464 104.28515625 13.83984375 C104.62671937 12.22637494 104.96906629 10.61307168 105.3125 9 C105.45913086 8.29045166 105.60576172 7.58090332 105.75683594 6.84985352 C106.76861934 2.23138066 106.76861934 2.23138066 109 0 C111.15478516 -0.22705078 111.15478516 -0.22705078 113.7890625 -0.1953125 C115.20058594 -0.18564453 115.20058594 -0.18564453 116.640625 -0.17578125 C117.62546875 -0.15902344 118.6103125 -0.14226562 119.625 -0.125 C120.61757813 -0.11597656 121.61015625 -0.10695313 122.6328125 -0.09765625 C125.08878134 -0.07404116 127.54427168 -0.04110799 130 0 C130.99927998 3.10448761 130.98514525 4.93322874 129.99609375 8.02734375 C129.63149048 9.19934326 129.63149048 9.19934326 129.25952148 10.39501953 C128.98825439 11.23403809 128.7169873 12.07305664 128.4375 12.9375 C127.8736649 14.74567797 127.31120798 16.55428617 126.75 18.36328125 C126.45867187 19.29479004 126.16734375 20.22629883 125.8671875 21.18603516 C124.49235757 25.64726539 123.21155327 30.13412897 121.9375 34.625 C121.68871094 35.49930664 121.43992187 36.37361328 121.18359375 37.27441406 C118.96446423 45.09074593 116.78627425 52.91830884 114.62207031 60.75 C113.52171031 64.72995203 112.41705913 68.70871174 111.3125 72.6875 C111.11003662 73.41799561 110.90757324 74.14849121 110.69897461 74.90112305 C109.4857126 79.27321562 108.2517803 83.63877459 107 88 C102.87513162 88.08676908 98.75049616 88.14031295 94.625 88.1875 C93.449375 88.21263672 92.27375 88.23777344 91.0625 88.26367188 C89.38027344 88.27817383 89.38027344 88.27817383 87.6640625 88.29296875 C86.10872803 88.31653442 86.10872803 88.31653442 84.52197266 88.34057617 C83.68972168 88.22818604 82.8574707 88.1157959 82 88 C79.86302289 84.79453433 79.19549053 82.4132218 78.265625 78.69140625 C78.10692932 78.06057632 77.94823364 77.4297464 77.784729 76.77980042 C77.2664571 74.70896768 76.75771444 72.6359445 76.25 70.5625 C76.07525146 69.85679871 75.90050293 69.15109741 75.72045898 68.42401123 C66 29.15730545 66 29.15730545 66 23 C65.34 23 64.68 23 64 23 C63.90074219 24.0209375 63.80148437 25.041875 63.69921875 26.09375 C62.87506958 32.65242403 61.28960459 39.06415566 59.8125 45.5 C59.58164703 46.51397354 59.58164703 46.51397354 59.34613037 47.5484314 C57.19604561 56.9920255 54.9652022 66.4139811 52.625 75.8125 C52.37468018 76.81925781 52.12436035 77.82601562 51.86645508 78.86328125 C50.12953466 85.74093068 50.12953466 85.74093068 49 88 C40.75 88 32.5 88 24 88 C21.53082083 81.82705207 19.43963508 76.51324829 17.81640625 70.21875 C17.63583679 69.52690613 17.45526733 68.83506226 17.26922607 68.12225342 C16.6945752 65.91627967 16.12859814 63.7081821 15.5625 61.5 C14.96439897 59.19808293 14.36392511 56.89679304 13.76335144 54.59552002 C13.37167387 53.09404385 12.98072342 51.59237779 12.5905304 50.09051514 C11.21417453 44.79614215 9.79370714 39.51609762 8.3125 34.25 C8.12800293 33.5904834 7.94350586 32.9309668 7.75341797 32.25146484 C6.90883993 29.23448135 6.06134273 26.21831917 5.21386719 23.20214844 C4.36666526 20.17782322 3.52660771 17.15157978 2.6875 14.125 C2.42042236 13.17786133 2.15334473 12.23072266 1.87817383 11.25488281 C1.63349365 10.36897461 1.38881348 9.48306641 1.13671875 8.5703125 C0.91717529 7.78414551 0.69763184 6.99797852 0.47143555 6.18798828 C0 4 0 4 0 0 Z " fill="#050505" transform="translate(721,501)"/>
<path d="M0 0 C9.42220561 5.86637324 14.99716481 15.15939855 17.58984375 25.83984375 C20.77600519 41.34723539 18.78301106 57.56202605 10.328125 71.08984375 C4.32580528 78.82385224 -4.87265879 84.09555975 -14.546875 85.52734375 C-28.26570525 86.66075898 -40.32549242 85.16062967 -51.546875 76.52734375 C-62.99528647 65.10120545 -64.84200308 51.7583708 -64.86376953 36.35498047 C-64.70522108 23.97058509 -61.93648956 12.76784053 -52.8046875 3.8203125 C-37.79702509 -8.47849799 -16.82578503 -8.90321447 0 0 Z " fill="#030404" transform="translate(691.546875,505.47265625)"/>
<path d="M0 0 C1.40668945 -0.01740234 1.40668945 -0.01740234 2.84179688 -0.03515625 C12.68442715 0.00588321 20.05545553 2.80181486 28.0625 8.375 C28.92875 8.931875 29.795 9.48875 30.6875 10.0625 C39.50379772 18.64678988 42.12186027 29.49824679 42.41357422 41.38916016 C42.53617873 56.36943011 40.68213356 70.04260508 30.25390625 81.484375 C19.33016118 90.90878251 6.21297717 92.33059217 -7.546875 91.60449219 C-17.48857592 90.65012139 -25.61655074 84.8431678 -31.9375 77.375 C-40.95391834 63.15824079 -42.34308413 45.70300949 -39.3203125 29.3046875 C-36.49787194 18.93908721 -30.51114737 10.33683911 -21.40625 4.59375 C-13.97763914 0.9264611 -8.23058019 -0.10140345 0 0 Z " fill="#056CED" transform="translate(354.9375,499.625)"/>
<path d="M0 0 C7.26 0 14.52 0 22 0 C22.01458252 3.07417236 22.02916504 6.14834473 22.04418945 9.31567383 C22.09446292 19.45788775 22.16104496 29.59994696 22.23571491 39.74200916 C22.28049629 45.89285289 22.31973526 52.04362918 22.34643555 58.19458008 C22.37239102 64.12746054 22.41273824 70.06008257 22.46318626 75.99280357 C22.47990757 78.25944499 22.49138894 80.52613115 22.49761391 82.7928257 C22.50719777 85.96087546 22.53518858 89.12825614 22.56762695 92.29614258 C22.56547432 93.71062683 22.56547432 93.71062683 22.5632782 95.15368652 C22.58208542 96.44723808 22.58208542 96.44723808 22.60127258 97.766922 C22.60588155 98.51633969 22.61049051 99.26575739 22.61523914 100.03788471 C23.10855334 102.55357547 23.99750579 103.44305409 26 105 C28.50203648 105.57571496 28.50203648 105.57571496 31.1875 105.6875 C32.08855469 105.75324219 32.98960937 105.81898438 33.91796875 105.88671875 C34.60503906 105.92410156 35.29210937 105.96148438 36 106 C36.05380578 108.79192205 36.09357669 111.5828141 36.125 114.375 C36.14175781 115.1690625 36.15851563 115.963125 36.17578125 116.78125 C36.19335473 118.85492015 36.10335168 120.92883241 36 123 C32.19712329 126.80287671 26.26530427 126.20374078 21.125 126.3125 C13.59405666 126.24894774 8.95127694 124.95127694 3.625 119.625 C-0.30168726 113.28188981 -0.27825202 107.36651781 -0.22705078 100.12939453 C-0.22734283 99.04587204 -0.22763489 97.96234955 -0.22793579 96.84599304 C-0.22654566 93.27485059 -0.21099909 89.70391838 -0.1953125 86.1328125 C-0.19158125 83.65274164 -0.18873481 81.1726693 -0.18673706 78.69259644 C-0.17910944 72.17256585 -0.1594683 65.6526247 -0.1373291 59.13262939 C-0.11576814 52.47645759 -0.10773134 45.82025973 -0.09765625 39.1640625 C-0.07622168 26.10932943 -0.04104651 13.05468615 0 0 Z " fill="#056BEC" transform="translate(273,465)"/>
<path d="M0 0 C4.85342207 3.20325857 7.24246812 7.7932467 8.74609375 13.36328125 C10.39181061 25.08689313 9.96855045 37.09046934 3.125 47.0625 C-2.43991149 51.22645475 -8.20133711 50.79374518 -14.875 50.0625 C-19.90142677 47.94610978 -21.93154056 45.01767472 -24.0625 40.1875 C-28.19296001 29.38475843 -28.26448378 17.844605 -23.875 7.0625 C-18.30369453 -2.2044381 -9.72817745 -2.35359132 0 0 Z " fill="#FAFAF9" transform="translate(676.875,520.9375)"/>
<path d="M0 0 C3.90202506 2.75391431 6.06985072 5.44065553 7.17431641 10.15942383 C8.88132692 20.208223 9.93486194 34.27351179 4.23046875 43.09375 C0.00311457 47.61938465 -4.3970351 49.00046871 -10.5 49.3125 C-15.16142228 49.09086796 -17.88397758 48.05416368 -21.375 44.8125 C-26.45628063 37.77059662 -26.58096724 31.42872363 -26.625 23.0625 C-26.645625 22.09828125 -26.66625 21.1340625 -26.6875 20.140625 C-26.72234405 13.72931942 -26.47990139 7.31244097 -21.9934082 2.25512695 C-15.80829865 -3.23120983 -7.16954453 -4.21971348 0 0 Z " fill="#F9FCFD" transform="translate(365.375,522.1875)"/>
<path d="M0 0 C3.00155373 -0.13615919 5.996821 -0.2346398 9 -0.3125 C9.83917969 -0.35439453 10.67835938 -0.39628906 11.54296875 -0.43945312 C17.77598303 -0.56024798 22.33906648 0.69106406 27 5 C30.15778963 10.30825338 29.8721724 16.47033584 28.41796875 22.35546875 C26.82622344 26.22944249 24.87891412 28.50106443 21.1875 30.5 C14.81222685 32.92409883 7.7054329 32.52172373 1 32 C0 31 0 31 -0.11352539 28.04077148 C-0.10828857 26.74727783 -0.10305176 25.45378418 -0.09765625 24.12109375 C-0.0962413 23.4344313 -0.09482635 22.74776886 -0.09336853 22.04029846 C-0.08775479 19.83932199 -0.07520007 17.63844591 -0.0625 15.4375 C-0.05748676 13.94856917 -0.05292355 12.45963676 -0.04882812 10.97070312 C-0.03778093 7.31376925 -0.02050713 3.65689442 0 0 Z " fill="#F3F8FC" transform="translate(202,538)"/>
<path d="M0 0 C2.01746506 -0.01715449 4.03326515 -0.06103269 6.05029297 -0.10522461 C7.97035156 -0.11779297 7.97035156 -0.11779297 9.92919922 -0.13061523 C11.68538574 -0.15248901 11.68538574 -0.15248901 13.47705078 -0.17480469 C17.50599803 0.39698265 19.67065844 1.71877377 22.78857422 4.29516602 C23.55581143 7.9011809 23.11473561 9.64284324 21.47607422 12.92016602 C14.81329314 18.80820511 7.05784528 19.65854993 -1.52392578 19.73266602 C-2.28850098 19.74273682 -3.05307617 19.75280762 -3.84082031 19.76318359 C-9.51337857 19.6757704 -13.8721482 18.55646768 -18.08642578 14.48266602 C-19.64343208 11.45515376 -19.76049779 9.65823206 -19.21142578 6.29516602 C-13.36244549 -0.63125801 -8.6361698 0.05114483 0 0 Z " fill="#F9F9F9" transform="translate(446.21142578125,590.704833984375)"/>
<path d="M0 0 C3.1430038 2.07152523 4.13468026 3.43713534 5.75 6.8125 C6.1484375 10.1875 6.1484375 10.1875 6.125 13.8125 C6.13273437 15.00875 6.14046875 16.205 6.1484375 17.4375 C5.61117645 21.98841714 4.16510917 24.46799919 0.87109375 27.59765625 C-2.96356031 29.79393141 -6.9737858 29.44318961 -11.25 28.8125 C-14.88438172 26.692444 -16.73617257 24.69292228 -18.25 20.8125 C-18.55078125 17.53515625 -18.55078125 17.53515625 -18.5625 13.875 C-18.57925781 12.66972656 -18.59601563 11.46445312 -18.61328125 10.22265625 C-18.2235843 6.56453327 -17.43089453 4.73437315 -15.25 1.8125 C-10.36969453 -2.11885718 -5.77218346 -2.10906704 0 0 Z " fill="#F9FAF9" transform="translate(453.25,515.1875)"/>
<path d="M0 0 C4.021875 -0.0928125 4.021875 -0.0928125 8.125 -0.1875 C8.95789551 -0.21481201 9.79079102 -0.24212402 10.64892578 -0.27026367 C15.50273718 -0.3241177 18.81697656 0.27277043 23 3 C25.34693138 6.52039707 25.32723764 8.20057009 25.375 12.375 C25.40335938 13.49648438 25.43171875 14.61796875 25.4609375 15.7734375 C24.81524279 20.29330045 22.86829567 22.56878267 19.296875 25.3046875 C15.64395695 26.41050283 12.03947049 26.2060697 8.25 26.125 C4.16625 26.063125 4.16625 26.063125 0 26 C0 17.42 0 8.84 0 0 Z " fill="#F8FBFD" transform="translate(203,493)"/>
<path d="M0 0 C0.33 0 0.66 0 1 0 C0.9685791 0.76965088 0.9371582 1.53930176 0.90478516 2.33227539 C0.3351092 18.40699248 0.12934585 31.05103626 8.2578125 45.1875 C9 47 9 47 8 50 C7.04446324 48.57442573 6.11178949 47.13352954 5.1875 45.6875 C4.40439453 44.48673828 4.40439453 44.48673828 3.60546875 43.26171875 C-0.65774486 34.60044535 -1.44096264 26.16119667 -1.25 16.625 C-1.24484375 15.57183594 -1.2396875 14.51867187 -1.234375 13.43359375 C-1.18745464 8.80607335 -1.01904196 4.52850813 0 0 Z " fill="#0F6FDD" transform="translate(316,528)"/>
<path d="M0 0 C3.67949474 5.51924211 2.70869356 13.53477544 2 20 C0.18141987 27.66457378 -2.19836333 33.72920488 -9 38 C-8.67 36.35 -8.34 34.7 -8 33 C-6.515 32.505 -6.515 32.505 -5 32 C-3.77030122 28.48809191 -3.77030122 28.48809191 -3 25 C-2.34 25 -1.68 25 -1 25 C-0.15672251 16.64251778 0.12190678 8.39802254 0 0 Z " fill="#1F7CD9" transform="translate(253,543)"/>
<path d="M0 0 C2.31 0.33 4.62 0.66 7 1 C10.26014388 8.33532374 11.2267967 15.17029546 9 23 C8.01 23 7.02 23 6 23 C6.15984375 22.45214844 6.3196875 21.90429688 6.484375 21.33984375 C7.67015736 15.95890714 7.87846836 10.10832406 5.75 5 C3.98503976 2.98290258 2.23947608 1.46724295 0 0 Z " fill="#0D6ADB" transform="translate(223,539)"/>
<path d="M0 0 C0.66 0.66 1.32 1.32 2 2 C-0.25398554 5.55892453 -1.97870236 6.78928673 -6 8 C-8.80993945 8.13760722 -11.51001924 8.19011573 -14.3125 8.125 C-15.05306641 8.11597656 -15.79363281 8.10695313 -16.55664062 8.09765625 C-18.37123467 8.07424213 -20.18566071 8.03837615 -22 8 C-22.33 7.34 -22.66 6.68 -23 6 C-21.24623047 5.94392578 -21.24623047 5.94392578 -19.45703125 5.88671875 C-17.90882325 5.8210372 -16.36064758 5.75459061 -14.8125 5.6875 C-14.04357422 5.66494141 -13.27464844 5.64238281 -12.48242188 5.61914062 C-7.89075147 5.40236649 -4.7402874 4.94139106 -1 2 C-0.67 1.34 -0.34 0.68 0 0 Z " fill="#1774E1" transform="translate(226,513)"/>
<path d="M0 0 C5.06425688 0.44546704 9.75417908 1.18406503 14.671875 2.5234375 C19.70414046 3.55353211 24.8808599 3.70346445 30 4 C30 4.33 30 4.66 30 5 C8.18621465 5.82555811 8.18621465 5.82555811 0 1 C0 0.67 0 0.34 0 0 Z " fill="#2E82DF" transform="translate(335,586)"/>
<path d="M0 0 C0.66 0 1.32 0 2 0 C1.67 6.6 1.34 13.2 1 20 C0.01 20 -0.98 20 -2 20 C-2.05407567 17.41638482 -2.093707 14.83390745 -2.125 12.25 C-2.14175781 11.52039063 -2.15851563 10.79078125 -2.17578125 10.0390625 C-2.21072239 6.1955376 -2.17499684 3.25393228 0 0 Z " fill="#2A83E0" transform="translate(338,531)"/>
<path d="M0 0 C-1.625 5.75 -1.625 5.75 -5 8 C-5 7.01 -5 6.02 -5 5 C-6.32 5 -7.64 5 -9 5 C-9 3.68 -9 2.36 -9 1 C-5.94152152 0.45627049 -3.11227195 0 0 0 Z " fill="#0B71DE" transform="translate(393,568)"/>
<path d="M0 0 C0.33 0 0.66 0 1 0 C1.06058594 0.97839844 1.12117188 1.95679688 1.18359375 2.96484375 C1.63321512 9.99968883 2.14049365 17.00116259 3 24 C0.89592904 22.30363829 0.06759322 21.45018536 -0.34057617 18.73168945 C-0.32486572 17.86761475 -0.30915527 17.00354004 -0.29296875 16.11328125 C-0.28330078 15.17548828 -0.27363281 14.23769531 -0.26367188 13.27148438 C-0.23853516 12.29501953 -0.21339844 11.31855469 -0.1875 10.3125 C-0.17396484 9.32443359 -0.16042969 8.33636719 -0.14648438 7.31835938 C-0.11112203 4.87835769 -0.06177033 2.43945281 0 0 Z " fill="#1171D6" transform="translate(337,536)"/>
<path d="M0 0 C0.66 0 1.32 0 2 0 C3.33710956 7.42838645 2.68340908 14.51404207 2 22 C1.67 22 1.34 22 1 22 C0.67 14.74 0.34 7.48 0 0 Z " fill="#378AE1" transform="translate(372,530)"/>
<path d="M0 0 C0.66 0.66 1.32 1.32 2 2 C0.44333045 2.9884096 -1.12062426 3.96535082 -2.6875 4.9375 C-3.55761719 5.48277344 -4.42773438 6.02804687 -5.32421875 6.58984375 C-7.94624689 7.97167172 -10.08310075 8.58480173 -13 9 C-13.33 8.34 -13.66 7.68 -14 7 C-13.113125 6.731875 -12.22625 6.46375 -11.3125 6.1875 C-8.00914945 5.12682201 -8.00914945 5.12682201 -5.3125 3.375 C-3 2 -3 2 0 2 C0 1.34 0 0.68 0 0 Z " fill="#1877E0" transform="translate(382,580)"/>
<path d="M0 0 C0.99 0 1.98 0 3 0 C4.5625 2.8125 4.5625 2.8125 6 6 C5.67 6.99 5.34 7.98 5 9 C4.16396622 7.68921847 3.3312426 6.37632511 2.5 5.0625 C2.0359375 4.33160156 1.571875 3.60070312 1.09375 2.84765625 C0 1 0 1 0 0 Z " fill="#1578D9" transform="translate(319,569)"/>
<path d="M0 0 C0.66 0.33 1.32 0.66 2 1 C0.02 3.31 -1.96 5.62 -4 8 C-4.99 7.34 -5.98 6.68 -7 6 C-4.69 4.02 -2.38 2.04 0 0 Z " fill="#237EE8" transform="translate(332,505)"/>
<path d="M0 0 C0.99 0 1.98 0 3 0 C4.6290678 4.79137588 5.20577428 8.05632546 4 13 C3.67 13 3.34 13 3 13 C2.92652344 12.09507812 2.92652344 12.09507812 2.8515625 11.171875 C2.77679688 10.37265625 2.70203125 9.5734375 2.625 8.75 C2.55539063 7.96109375 2.48578125 7.1721875 2.4140625 6.359375 C1.98492887 3.914123 1.21399362 2.15163097 0 0 Z " fill="#1B78E3" transform="translate(225,495)"/>
<path d="M0 0 C1.07310858 3.27185553 0.89263102 5.42947592 0.0625 8.75 C-0.22947266 9.94882812 -0.22947266 9.94882812 -0.52734375 11.171875 C-0.68332031 11.77515625 -0.83929688 12.3784375 -1 13 C-1.66 13 -2.32 13 -3 13 C-2.68991116 11.39536551 -2.37683713 9.79130769 -2.0625 8.1875 C-1.88847656 7.29417969 -1.71445312 6.40085937 -1.53515625 5.48046875 C-1 3 -1 3 0 0 Z " fill="#1172DD" transform="translate(374,549)"/>
<path d="M0 0 C2.31 0.33 4.62 0.66 7 1 C7 2.65 7 4.3 7 6 C4.56070254 4.07423885 2.19909405 2.19909405 0 0 Z " fill="#1F7CDE" transform="translate(223,539)"/>
</svg>
